<svg xmlns="http://www.w3.org/2000/svg" xmlns:xlink="http://www.w3.org/1999/xlink" version="1.1" x="0px" y="0px" viewBox="0 0 90 112.5" enable-background="new 0 0 90 90" xml:space="preserve"><path fill-rule="evenodd" clip-rule="evenodd" fill="#000000" d="M85.707,27.579H72.724v-4.262  c3.831-0.826,7.681-1.816,11.546-2.973l-2.774-9.118c-24.547,7.4-49.455,7.4-74.728,0l-2.726,9.167  c4.427,1.288,8.804,2.345,13.131,3.171v4.014H6.817v9.563h9.019l-8.87,44.401l23.637,0.791l0.05-45.192h28.543l0.05,45.192  l23.736-0.791l-8.92-44.401h11.646V27.579z M38.135,27.579h-8.126v-2.033c2.742,0.298,5.451,0.513,8.126,0.645V27.579z   M59.839,27.579h-8.82v-1.388c2.94-0.132,5.881-0.38,8.82-0.744V27.579z"/><text x="0" y="105" fill="#000000" font-size="5px" font-weight="bold" font-family="'Helvetica Neue', Helvetica, Arial-Unicode, Arial, Sans-serif">Created by Cristiano Zoucas</text><text x="0" y="110" fill="#000000" font-size="5px" font-weight="bold" font-family="'Helvetica Neue', Helvetica, Arial-Unicode, Arial, Sans-serif">from the Noun Project</text></svg>